<svg xmlns="http://www.w3.org/2000/svg" viewBox="0 0 64 64">
  <defs>
    <linearGradient id="fundo" x1="8" y1="4" x2="56" y2="60" gradientUnits="userSpaceOnUse">
      <stop offset="0" stop-color="#46c7ee"/>
      <stop offset=".55" stop-color="#2e90fa"/>
      <stop offset="1" stop-color="#1570ef"/>
    </linearGradient>
    <linearGradient id="brilho" x1="0" y1="4" x2="0" y2="30" gradientUnits="userSpaceOnUse">
      <stop offset="0" stop-color="#fff" stop-opacity=".28"/>
      <stop offset="1" stop-color="#fff" stop-opacity="0"/>
    </linearGradient>
  </defs>
  <path fill="url(#fundo)" d="M17 4h31c7.3 0 12.6 6.7 11 13.8l-6.8 31.1A14 14 0 0 1 38.5 60H11.8C4.5 60-.8 53.3.8 46.2l6.8-31.1A14 14 0 0 1 17 4Z"/>
  <path fill="url(#brilho)" d="M17 4h31c7.3 0 12.6 6.7 11 13.8L57.6 24H4.5l3.1-8.9A14 14 0 0 1 17 4Z"/>
  <g fill="#fff">
    <rect x="16" y="31" width="7" height="19" rx="3.5" transform="rotate(7 19.5 40.5)" opacity=".78"/>
    <rect x="29" y="13" width="7" height="37" rx="3.5" transform="rotate(7 32.5 31.5)"/>
    <rect x="42" y="24" width="7" height="26" rx="3.5" transform="rotate(7 45.5 37)" opacity=".9"/>
  </g>
</svg>
